g Stick_Tile_0
v 0.08333698 4.999475E-09 0.1297207
v 0.07217193 0.0416685 -0.1701937
v 0.08333698 4.759633E-09 -0.1701937
v 0.07217193 0.0416685 0.1297206
v 0.04166849 0.07217195 -0.1701937
v 0.04166849 0.07217196 0.1297206
v -3.642775E-09 0.08333698 -0.1701937
v -3.642775E-09 0.08333698 0.1297206
v -0.04166849 0.07217194 -0.1701937
v -0.04166849 0.07217194 0.1297206
v -0.07217193 0.0416685 -0.1701937
v -0.07217193 0.0416685 0.1297206
v -0.08333698 1.734317E-08 -0.1701937
v -0.08333698 1.758301E-08 0.1297206
v -0.07217195 -0.04166847 -0.1701937
v -0.07217195 -0.04166846 0.1297206
v -0.04166852 -0.07217192 -0.1701937
v -0.04166852 -0.07217191 0.1297206
v -3.874438E-08 -0.08333698 -0.1701937
v -3.874438E-08 -0.08333698 0.1297206
v 0.04166844 -0.07217196 -0.1701937
v 0.04166844 -0.07217196 0.1297206
v 0.07217191 -0.04166853 -0.1701937
v 0.0721719 -0.04166853 0.1297206
v 0.08333698 4.759633E-09 -0.1701937
v 0.08333698 4.999475E-09 0.1297207
v 0.0698257 5.039431E-09 0.149862
v 0.06047082 0.03491286 0.149862
v 0.08333698 4.999475E-09 0.1297207
v 0.07217193 0.0416685 0.1297206
v 0.03491285 0.06047085 0.149862
v 0.04166849 0.07217196 0.1297206
v -5.178169E-09 0.0698257 0.149862
v -3.642775E-09 0.08333698 0.1297206
v -0.03491285 0.06047083 0.149862
v -0.04166849 0.07217194 0.1297206
v -0.06047083 0.03491286 0.149862
v -0.07217193 0.0416685 0.1297206
v -0.06982571 1.558282E-08 0.149862
v -0.08333698 1.758301E-08 0.1297206
v -0.06047085 -0.03491283 0.149862
v -0.07217195 -0.04166846 0.1297206
v -0.03491287 -0.06047081 0.149862
v -0.04166852 -0.07217191 0.1297206
v -3.458882E-08 -0.06982571 0.149862
v -3.874438E-08 -0.08333698 0.1297206
v 0.03491281 -0.06047085 0.149862
v 0.04166844 -0.07217196 0.1297206
v 0.0604708 -0.03491288 0.149862
v 0.0721719 -0.04166853 0.1297206
v 0.0698257 5.039431E-09 0.149862
v 0.08333698 4.999475E-09 0.1297207
v 0.08333698 4.999984E-09 0.1701937
v 0.07217193 0.0416685 0.1701937
v 0.0698257 5.039431E-09 0.149862
v 0.06047082 0.03491286 0.149862
v 0.04166849 0.07217196 0.1701937
v 0.03491285 0.06047085 0.149862
v -3.642775E-09 0.08333698 0.1701937
v -5.178169E-09 0.0698257 0.149862
v -0.04166849 0.07217194 0.1701937
v -0.03491285 0.06047083 0.149862
v -0.07217193 0.0416685 0.1701937
v -0.06047083 0.03491286 0.149862
v -0.08333698 1.758352E-08 0.1701937
v -0.06982571 1.558282E-08 0.149862
v -0.07217195 -0.04166846 0.1701937
v -0.06047085 -0.03491283 0.149862
v -0.04166852 -0.07217191 0.1701937
v -0.03491287 -0.06047081 0.149862
v -3.874438E-08 -0.08333698 0.1701937
v -3.458882E-08 -0.06982571 0.149862
v 0.04166844 -0.07217196 0.1701937
v 0.03491281 -0.06047085 0.149862
v 0.0721719 -0.04166853 0.1701937
v 0.0604708 -0.03491288 0.149862
v 0.08333698 4.999984E-09 0.1701937
v 0.0698257 5.039431E-09 0.149862
v 0.08333698 4.759633E-09 -0.1701937
v 0.07217193 0.0416685 -0.1701937
v -1.271566E-08 1.192093E-09 -0.1701938
v 0.07217191 -0.04166853 -0.1701937
v 0.04166849 0.07217195 -0.1701937
v 0.04166844 -0.07217196 -0.1701937
v -3.642775E-09 0.08333698 -0.1701937
v -3.874438E-08 -0.08333698 -0.1701937
v -0.04166849 0.07217194 -0.1701937
v -0.04166852 -0.07217192 -0.1701937
v -0.07217193 0.0416685 -0.1701937
v -0.07217195 -0.04166847 -0.1701937
v -0.08333698 1.734317E-08 -0.1701937
vt 0.002 0.2011518
vt 0.03637117 0.002
vt 0.002 0.002
vt 0.03637117 0.2011518
vt 0.07074234 0.002
vt 0.07074234 0.2011518
vt 0.1051135 0.002
vt 0.1051135 0.2011518
vt 0.1394847 0.002
vt 0.1394847 0.2011518
vt 0.1738558 0.002
vt 0.1738558 0.2011518
vt 0.208227 0.002
vt 0.208227 0.2011518
vt 0.2425982 0.002
vt 0.2425982 0.2011518
vt 0.2769694 0.002
vt 0.2769694 0.2011518
vt 0.3113405 0.002
vt 0.3113405 0.2011518
vt 0.3457117 0.002
vt 0.3457117 0.2011518
vt 0.3800829 0.002
vt 0.3800829 0.2011518
vt 0.4144541 0.002
vt 0.4144541 0.2011518
vt 0.002 0.2187272
vt 0.03637117 0.2187272
vt 0.002 0.2011518
vt 0.03637117 0.2011518
vt 0.07074234 0.2187272
vt 0.07074234 0.2011518
vt 0.1051135 0.2187272
vt 0.1051135 0.2011518
vt 0.1394847 0.2187272
vt 0.1394847 0.2011518
vt 0.1738558 0.2187272
vt 0.1738558 0.2011518
vt 0.208227 0.2187272
vt 0.208227 0.2011518
vt 0.2425982 0.2187272
vt 0.2425982 0.2011518
vt 0.2769694 0.2187272
vt 0.2769694 0.2011518
vt 0.3113405 0.2187272
vt 0.3113405 0.2011518
vt 0.3457117 0.2187272
vt 0.3457117 0.2011518
vt 0.3800829 0.2187272
vt 0.3800829 0.2011518
vt 0.4144541 0.2187272
vt 0.4144541 0.2011518
vt 0.002 0.2353145
vt 0.03637117 0.2353144
vt 0.002 0.2187272
vt 0.03637117 0.2187272
vt 0.07074234 0.2353144
vt 0.07074234 0.2187272
vt 0.1051135 0.2353144
vt 0.1051135 0.2187272
vt 0.1394847 0.2353144
vt 0.1394847 0.2187272
vt 0.1738558 0.2353144
vt 0.1738558 0.2187272
vt 0.208227 0.2353144
vt 0.208227 0.2187272
vt 0.2425982 0.2353144
vt 0.2425982 0.2187272
vt 0.2769694 0.2353144
vt 0.2769694 0.2187272
vt 0.3113405 0.2353144
vt 0.3113405 0.2187272
vt 0.3457117 0.2353144
vt 0.3457117 0.2187272
vt 0.3800829 0.2353144
vt 0.3800829 0.2187272
vt 0.4144541 0.2353145
vt 0.4144541 0.2187272
vt 0.06256258 0.2438701
vt 0.03843574 0.2485923
vt 0.05931085 0.2912525
vt 0.08581815 0.251844
vt 0.01990237 0.2647452
vt 0.1019711 0.2703774
vt 0.01192847 0.2880008
vt 0.1066932 0.2945043
vt 0.01665064 0.3121276
vt 0.09871932 0.3177598
vt 0.03280358 0.330661
vt 0.08018595 0.3339127
vt 0.05605911 0.3386349
vn 1 0 0
vn 0.8660254 0.5 0
vn 1 0 0
vn 0.8660254 0.5 0
vn 0.5 0.8660254 0
vn 0.5 0.8660254 0
vn 0 1 0
vn 0 1 0
vn -0.5 0.8660254 0
vn -0.5 0.8660254 0
vn -0.8660253 0.5000001 0
vn -0.8660253 0.5000002 0
vn -1 0 0
vn -1 0 0
vn -0.8660254 -0.5 0
vn -0.8660254 -0.5 0
vn -0.5000005 -0.8660251 0
vn -0.5000005 -0.8660251 0
vn 0 -1 0
vn 0 -1 0
vn 0.4999996 -0.8660256 0
vn 0.4999996 -0.8660256 0
vn 0.8660251 -0.5000005 0
vn 0.8660251 -0.5000005 0
vn 1 0 0
vn 1 0 0
vn 0.8304535 0 0.5570878
vn 0.7191938 0.4152271 0.5570877
vn 0.8304535 0 0.5570879
vn 0.7191938 0.4152271 0.5570877
vn 0.4152268 0.7191941 0.5570877
vn 0.4152268 0.7191941 0.5570877
vn 0 0.8304536 0.5570877
vn 0 0.8304536 0.5570878
vn -0.4152268 0.719194 0.5570877
vn -0.4152268 0.719194 0.5570877
vn -0.7191941 0.4152271 0.5570875
vn -0.7191941 0.4152271 0.5570875
vn -0.8304539 0 0.5570874
vn -0.8304538 0 0.5570875
vn -0.7191942 -0.4152268 0.5570875
vn -0.7191942 -0.4152268 0.5570875
vn -0.4152273 -0.7191939 0.5570875
vn -0.4152273 -0.7191939 0.5570875
vn 0 -0.8304536 0.5570877
vn 0 -0.8304538 0.5570876
vn 0.4152266 -0.7191941 0.5570877
vn 0.4152266 -0.7191941 0.5570877
vn 0.7191935 -0.4152274 0.5570877
vn 0.7191935 -0.4152275 0.5570877
vn 0.8304535 0 0.5570878
vn 0.8304535 0 0.5570879
vn 0.8328663 0 -0.5534742
vn 0.7212834 0.4164329 -0.5534744
vn 0.8328663 0 -0.5534742
vn 0.7212834 0.416433 -0.5534743
vn 0.4164331 0.7212833 -0.5534743
vn 0.4164332 0.7212834 -0.5534742
vn 0 0.8328663 -0.5534742
vn 0 0.8328663 -0.5534742
vn -0.4164332 0.7212834 -0.5534742
vn -0.4164332 0.7212834 -0.5534742
vn -0.7212834 0.4164333 -0.5534741
vn -0.7212834 0.4164333 -0.5534741
vn -0.8328664 0 -0.5534741
vn -0.8328664 0 -0.5534741
vn -0.7212835 -0.4164331 -0.5534741
vn -0.7212834 -0.4164331 -0.5534741
vn -0.4164335 -0.7212833 -0.5534741
vn -0.4164335 -0.7212833 -0.5534741
vn 0 -0.8328663 -0.5534742
vn 0 -0.8328663 -0.5534742
vn 0.4164329 -0.7212836 -0.5534742
vn 0.4164329 -0.7212836 -0.5534741
vn 0.7212833 -0.4164332 -0.5534744
vn 0.7212831 -0.4164334 -0.5534744
vn 0.8328663 0 -0.5534742
vn 0.8328663 0 -0.5534742
vn 0 0 -1
vn 0 0 -1
vn 0 0 -1
vn 0 0 -1
vn 0 0 -1
vn 0 0 -1
vn 0 0 -1
vn 0 0 -1
vn 0 0 -1
vn 0 0 -1
vn 0 0 -1
vn 0 0 -1
vn 0 0 -1
g Stick_Tile_0_0
f 3/3/3 2/2/2 1/1/1
f 1/1/1 2/2/2 4/4/4
f 2/2/2 5/5/5 4/4/4
f 4/4/4 5/5/5 6/6/6
f 5/5/5 7/7/7 6/6/6
f 6/6/6 7/7/7 8/8/8
f 7/7/7 9/9/9 8/8/8
f 8/8/8 9/9/9 10/10/10
f 9/9/9 11/11/11 10/10/10
f 10/10/10 11/11/11 12/12/12
f 11/11/11 13/13/13 12/12/12
f 12/12/12 13/13/13 14/14/14
f 13/13/13 15/15/15 14/14/14
f 14/14/14 15/15/15 16/16/16
f 15/15/15 17/17/17 16/16/16
f 16/16/16 17/17/17 18/18/18
f 17/17/17 19/19/19 18/18/18
f 18/18/18 19/19/19 20/20/20
f 19/19/19 21/21/21 20/20/20
f 20/20/20 21/21/21 22/22/22
f 21/21/21 23/23/23 22/22/22
f 22/22/22 23/23/23 24/24/24
f 23/23/23 25/25/25 24/24/24
f 24/24/24 25/25/25 26/26/26
f 29/29/29 28/28/28 27/27/27
f 30/30/30 28/28/28 29/29/29
f 30/30/30 31/31/31 28/28/28
f 32/32/32 31/31/31 30/30/30
f 32/32/32 33/33/33 31/31/31
f 34/34/34 33/33/33 32/32/32
f 34/34/34 35/35/35 33/33/33
f 36/36/36 35/35/35 34/34/34
f 36/36/36 37/37/37 35/35/35
f 38/38/38 37/37/37 36/36/36
f 38/38/38 39/39/39 37/37/37
f 40/40/40 39/39/39 38/38/38
f 40/40/40 41/41/41 39/39/39
f 42/42/42 41/41/41 40/40/40
f 42/42/42 43/43/43 41/41/41
f 44/44/44 43/43/43 42/42/42
f 44/44/44 45/45/45 43/43/43
f 46/46/46 45/45/45 44/44/44
f 46/46/46 47/47/47 45/45/45
f 48/48/48 47/47/47 46/46/46
f 48/48/48 49/49/49 47/47/47
f 50/50/50 49/49/49 48/48/48
f 50/50/50 51/51/51 49/49/49
f 52/52/52 51/51/51 50/50/50
f 55/55/55 54/54/54 53/53/53
f 56/56/56 54/54/54 55/55/55
f 56/56/56 57/57/57 54/54/54
f 58/58/58 57/57/57 56/56/56
f 58/58/58 59/59/59 57/57/57
f 60/60/60 59/59/59 58/58/58
f 60/60/60 61/61/61 59/59/59
f 62/62/62 61/61/61 60/60/60
f 62/62/62 63/63/63 61/61/61
f 64/64/64 63/63/63 62/62/62
f 64/64/64 65/65/65 63/63/63
f 66/66/66 65/65/65 64/64/64
f 66/66/66 67/67/67 65/65/65
f 68/68/68 67/67/67 66/66/66
f 68/68/68 69/69/69 67/67/67
f 70/70/70 69/69/69 68/68/68
f 70/70/70 71/71/71 69/69/69
f 72/72/72 71/71/71 70/70/70
f 72/72/72 73/73/73 71/71/71
f 74/74/74 73/73/73 72/72/72
f 74/74/74 75/75/75 73/73/73
f 76/76/76 75/75/75 74/74/74
f 76/76/76 77/77/77 75/75/75
f 78/78/78 77/77/77 76/76/76
f 81/81/81 80/80/80 79/79/79
f 81/81/81 79/79/79 82/82/82
f 81/81/81 83/83/83 80/80/80
f 81/81/81 82/82/82 84/84/84
f 81/81/81 85/85/85 83/83/83
f 81/81/81 84/84/84 86/86/86
f 81/81/81 87/87/87 85/85/85
f 81/81/81 86/86/86 88/88/88
f 81/81/81 89/89/89 87/87/87
f 81/81/81 88/88/88 90/90/90
f 81/81/81 91/91/91 89/89/89
f 81/81/81 90/90/90 91/91/91
